<?xml version="1.0" standalone="no"?>
<!DOCTYPE svg PUBLIC "-//W3C//DTD SVG 20010904//EN"
 "http://www.w3.org/TR/2001/REC-SVG-20010904/DTD/svg10.dtd">
<svg version="1.0" xmlns="http://www.w3.org/2000/svg"
 width="366.000000pt" height="366.000000pt" viewBox="0 0 366.000000 366.000000"
 preserveAspectRatio="xMidYMid meet">
<metadata>
Created by potrace 1.11, written by Peter Selinger 2001-2013
</metadata>
<g transform="translate(0.000000,366.000000) scale(0.100000,-0.100000)"
fill="#000000" stroke="none">
<path d="M2395 3509 c-4 -6 -5 -12 -2 -15 2 -3 7 2 10 11 7 17 1 20 -8 4z"/>
<path d="M2295 3481 c-3 -5 -2 -12 3 -15 5 -3 9 1 9 9 0 17 -3 19 -12 6z"/>
<path d="M770 3240 c0 -5 5 -10 11 -10 5 0 7 5 4 10 -3 6 -8 10 -11 10 -2 0
-4 -4 -4 -10z"/>
<path d="M2399 3235 c-1 -3 -2 -8 -3 -12 -1 -5 -5 -14 -10 -21 -7 -11 -4 -11
13 0 12 7 17 14 11 16 -6 2 -8 8 -4 13 3 5 3 9 0 9 -3 0 -7 -2 -7 -5z"/>
<path d="M1800 3215 c-15 -8 -45 -11 -84 -8 -109 9 -196 1 -228 -21 -28 -20
-36 -20 -40 -1 -3 13 -9 12 -43 -6 -37 -19 -113 -27 -134 -15 -4 3 -24 -8 -43
-24 -19 -16 -38 -27 -41 -23 -4 3 -14 0 -23 -8 -10 -8 -39 -14 -65 -14 -56 -1
-67 -8 -49 -30 7 -9 9 -15 4 -14 -8 2 -33 -3 -87 -18 -12 -3 -16 -11 -12 -23
6 -17 -23 -44 -48 -45 -5 0 -14 -7 -20 -16 -7 -9 -20 -15 -29 -13 -9 1 -24 -8
-32 -21 -8 -12 -29 -25 -46 -28 -23 -5 -34 -15 -41 -37 -9 -25 -14 -28 -30
-19 -25 13 -39 4 -39 -27 0 -13 -4 -24 -9 -24 -5 0 -12 -11 -15 -24 -3 -13
-18 -32 -33 -41 -16 -10 -32 -24 -36 -32 -5 -7 -12 -11 -18 -8 -5 3 -6 0 -4
-8 4 -8 -5 -18 -22 -26 -15 -7 -35 -17 -43 -21 -10 -4 -16 -23 -16 -51 -1 -24
-7 -45 -13 -47 -6 -2 -11 -9 -11 -15 0 -13 -9 -30 -65 -127 -54 -95 -74 -166
-81 -293 -4 -82 6 -111 49 -147 15 -12 16 -20 8 -42 -10 -27 -36 -41 -81 -44
-43 -4 -72 -13 -90 -29 -9 -8 -30 -20 -47 -26 -19 -6 -36 -21 -43 -40 -12 -29
-11 -32 36 -78 105 -102 134 -143 134 -189 0 -47 -33 -91 -63 -85 l-24 5 2
-115 1 -115 -52 -55 c-67 -70 -88 -110 -74 -137 6 -11 15 -20 19 -20 5 0 8
-14 6 -32 -1 -20 6 -46 21 -68 34 -52 38 -83 18 -121 -10 -19 -19 -54 -20 -78
-5 -66 -9 -74 -44 -66 -25 5 -30 3 -30 -12 1 -42 38 -60 81 -38 29 16 29 15
35 -15 5 -20 14 -32 29 -36 15 -4 40 -33 70 -79 55 -87 87 -108 265 -175 93
-35 129 -44 190 -46 41 -1 115 -11 164 -23 48 -12 111 -24 140 -27 28 -4 54
-8 58 -10 4 -3 26 -7 50 -10 24 -3 50 -8 58 -10 18 -7 191 -18 277 -19 35 0
63 -2 63 -5 0 -8 318 -6 326 2 4 4 14 3 24 -2 10 -5 20 -7 22 -4 7 6 179 13
443 19 105 2 201 6 215 9 14 2 48 7 75 11 101 13 120 16 140 22 11 4 31 7 45
9 80 7 103 14 258 85 35 16 67 29 72 29 5 0 28 28 52 63 44 66 113 144 138
157 9 4 31 2 52 -7 l36 -14 -34 -76 c-34 -74 -40 -110 -17 -106 6 1 32 4 58 7
26 2 68 15 93 28 l47 24 1 80 c0 43 -3 89 -7 101 -5 14 -3 25 7 33 23 20 16
37 -35 81 -47 40 -48 44 -34 65 12 18 12 30 3 65 -6 23 -18 53 -27 65 -8 13
-16 45 -18 71 -1 27 -9 65 -18 86 -13 30 -13 37 -2 37 17 0 38 61 29 86 -14
40 -58 86 -98 104 -66 30 -90 53 -83 81 3 13 15 29 26 34 96 48 110 58 118 83
11 31 -2 83 -29 125 -10 14 -18 30 -18 35 0 5 -7 15 -15 22 -19 16 -19 30 1
30 8 0 12 5 8 11 -3 6 -7 38 -8 71 -1 32 -6 62 -12 66 -20 13 -23 51 -6 62 11
6 12 9 4 10 -8 0 -10 5 -6 12 12 18 11 132 -1 140 -6 5 -5 8 3 8 9 0 10 5 3
18 -5 10 -12 33 -14 52 -3 19 -6 35 -7 35 -1 0 -3 7 -5 15 -2 8 -6 24 -9 35
-18 73 -19 88 -6 80 9 -5 11 -4 6 4 -4 6 -11 9 -16 6 -5 -3 -13 7 -16 22 -9
36 -66 157 -76 161 -4 2 -8 8 -8 14 0 14 -53 87 -105 143 -95 104 -107 115
-115 115 -5 0 -19 17 -31 38 -25 41 -50 63 -61 56 -16 -10 -29 7 -17 22 6 8
10 16 8 17 -2 2 -21 15 -41 30 -20 15 -43 27 -50 27 -14 0 -44 39 -40 53 1 4
-7 2 -18 -5 -15 -9 -23 -10 -28 -2 -4 6 -22 17 -39 25 -18 8 -33 17 -33 21 0
5 -7 8 -15 8 -23 0 -65 22 -59 31 3 5 -3 10 -13 10 -62 5 -93 16 -141 52 -19
14 -40 23 -48 20 -8 -3 -14 -1 -14 5 0 21 -124 52 -228 57 -40 2 -81 7 -90 11
-9 4 -42 8 -73 9 -31 2 -62 6 -68 9 -21 14 -47 14 -71 1z"/>
<path d="M677 3193 c3 -7 6 -13 8 -13 2 0 5 6 8 13 3 8 -1 14 -8 14 -7 0 -11
-6 -8 -14z"/>
<path d="M653 3185 c0 -8 4 -12 9 -9 5 3 6 10 3 15 -9 13 -12 11 -12 -6z"/>
<path d="M714 3180 c0 -13 4 -16 10 -10 7 7 7 13 0 20 -6 6 -10 3 -10 -10z"/>
<path d="M2406 3187 c-16 -12 -16 -14 -3 -14 9 0 18 6 21 14 3 7 4 13 3 13 -2
0 -11 -6 -21 -13z"/>
<path d="M2356 3182 c-3 -5 1 -9 9 -9 8 0 12 4 9 9 -3 4 -7 8 -9 8 -2 0 -6 -4
-9 -8z"/>
<path d="M2545 3180 c-3 -6 1 -7 9 -4 18 7 21 14 7 14 -6 0 -13 -4 -16 -10z"/>
<path d="M2433 3150 c-1 -11 2 -22 6 -24 4 -3 7 4 6 14 -2 27 -10 33 -12 10z"/>
<path d="M2506 3162 c-2 -4 4 -8 14 -8 10 0 16 4 14 8 -3 4 -9 8 -14 8 -5 0
-11 -4 -14 -8z"/>
<path d="M2559 3168 c-7 -23 -4 -35 7 -35 9 0 11 4 4 12 -5 7 -7 15 -3 18 3 4
3 7 0 7 -4 0 -7 -1 -8 -2z"/>
<path d="M433 3145 c0 -8 4 -12 9 -9 5 3 6 10 3 15 -9 13 -12 11 -12 -6z"/>
<path d="M595 3149 c-4 -6 -5 -12 -2 -15 2 -3 7 2 10 11 7 17 1 20 -8 4z"/>
<path d="M717 3128 c19 -21 31 -25 14 -5 -6 8 -9 16 -6 19 3 2 -2 5 -10 5 -13
0 -13 -3 2 -19z"/>
<path d="M507 3127 c-3 -8 1 -14 8 -14 7 0 11 6 8 14 -3 7 -6 13 -8 13 -2 0
-5 -6 -8 -13z"/>
<path d="M2474 3132 c3 -6 1 -12 -6 -14 -7 -3 -5 -7 6 -11 11 -5 15 -3 10 5
-5 8 -2 9 9 5 24 -9 21 0 -4 14 -13 6 -19 7 -15 1z"/>
<path d="M470 3120 c0 -5 5 -10 11 -10 5 0 7 5 4 10 -3 6 -8 10 -11 10 -2 0
-4 -4 -4 -10z"/>
<path d="M610 3120 c0 -5 5 -10 11 -10 5 0 7 5 4 10 -3 6 -8 10 -11 10 -2 0
-4 -4 -4 -10z"/>
<path d="M681 3109 c12 -24 26 -31 26 -14 0 8 -5 11 -10 8 -6 -4 -8 0 -5 9 4
8 0 15 -7 15 -10 0 -11 -5 -4 -18z"/>
<path d="M2540 3113 c0 -7 5 -15 10 -18 6 -4 8 -11 5 -16 -4 -5 -1 -9 4 -9 15
0 13 11 -4 34 -8 11 -15 15 -15 9z"/>
<path d="M364 3099 c-4 -7 -3 -9 4 -5 5 3 13 0 15 -6 4 -9 6 -10 6 -1 1 17
-16 25 -25 12z"/>
<path d="M760 3100 c-9 -6 -10 -10 -3 -10 6 0 15 5 18 10 8 12 4 12 -15 0z"/>
<path d="M2515 3099 c-4 -6 -5 -12 -2 -15 2 -3 7 2 10 11 7 17 1 20 -8 4z"/>
<path d="M2675 3101 c-3 -5 -2 -12 3 -15 5 -3 9 1 9 9 0 17 -3 19 -12 6z"/>
<path d="M561 3092 c-1 -7 -5 -10 -11 -7 -6 4 -7 -1 -3 -11 5 -13 3 -15 -7 -9
-9 6 -11 4 -5 -5 6 -10 11 -9 22 6 8 10 17 18 21 17 4 -1 9 1 12 4 3 4 0 3 -7
0 -6 -4 -14 -1 -16 5 -4 10 -6 10 -6 0z"/>
<path d="M635 3080 c6 -30 16 -40 12 -12 -2 12 -6 24 -10 28 -3 4 -4 -4 -2
-16z"/>
<path d="M239 3073 c-13 -16 -12 -17 4 -4 9 7 17 15 17 17 0 8 -8 3 -21 -13z"/>
<path d="M496 3073 c-6 -14 -5 -15 5 -6 7 7 10 15 7 18 -3 3 -9 -2 -12 -12z"/>
<path d="M660 3086 c0 -2 8 -10 18 -17 15 -13 16 -12 3 4 -13 16 -21 21 -21
13z"/>
<path d="M390 3056 c7 -7 13 -7 20 0 6 6 3 10 -10 10 -13 0 -16 -4 -10 -10z"/>
<path d="M580 3060 c-8 -5 0 -7 18 -7 17 1 29 4 26 6 -8 9 -31 9 -44 1z"/>
<path d="M516 3047 c3 -10 9 -15 12 -12 3 3 0 11 -7 18 -10 9 -11 8 -5 -6z"/>
<path d="M479 3048 c-9 -30 -6 -37 12 -28 23 13 25 22 2 13 -11 -4 -14 -3 -9
5 4 7 5 12 2 12 -3 0 -6 -1 -7 -2z"/>
<path d="M538 3024 c-31 -16 -38 -27 -11 -17 12 5 14 3 8 -8 -5 -8 -5 -11 1
-6 5 5 8 11 6 14 -2 3 5 11 15 19 24 18 15 17 -19 -2z"/>
<path d="M2630 3024 c0 -2 9 -8 20 -14 15 -8 18 -8 14 3 -4 11 -34 21 -34 11z"/>
<path d="M350 3006 c0 -2 7 -7 16 -10 8 -3 12 -2 9 4 -6 10 -25 14 -25 6z"/>
<path d="M400 3000 c-12 -7 -10 -9 7 -7 12 0 19 5 17 9 -6 10 -6 10 -24 -2z"/>
<path d="M2707 2999 c7 -7 15 -10 18 -7 3 3 -2 9 -12 12 -14 6 -15 5 -6 -5z"/>
<path d="M490 2980 c0 -5 5 -10 10 -10 6 0 10 5 10 10 0 6 -4 10 -10 10 -5 0
-10 -4 -10 -10z"/>
<path d="M526 2958 c3 -5 10 -6 15 -3 13 9 11 12 -6 12 -8 0 -12 -4 -9 -9z"/>
<path d="M307 2939 c7 -7 15 -10 18 -7 3 3 -2 9 -12 12 -14 6 -15 5 -6 -5z"/>
<path d="M393 2933 c0 -9 4 -10 14 -2 7 6 13 12 13 14 0 1 -6 2 -13 2 -8 0
-14 -6 -14 -14z"/>
<path d="M282 2901 c-11 -6 -9 -9 6 -13 15 -4 19 -2 15 8 -6 16 -4 16 -21 5z"/>
<path d="M386 2898 c3 -5 10 -6 15 -3 13 9 11 12 -6 12 -8 0 -12 -4 -9 -9z"/>
<path d="M357 2877 c4 -7 -1 -8 -13 -3 -15 6 -17 5 -6 -5 10 -11 15 -10 28 2
13 14 13 16 0 16 -8 0 -12 -5 -9 -10z"/>
<path d="M519 2878 c-5 -18 -6 -38 -1 -34 7 8 12 36 6 36 -2 0 -4 -1 -5 -2z"/>
<path d="M247 2859 c7 -7 15 -10 18 -7 3 3 -2 9 -12 12 -14 6 -15 5 -6 -5z"/>
<path d="M311 2853 c7 -12 15 -20 18 -17 3 2 -3 12 -13 22 -17 16 -18 16 -5
-5z"/>
<path d="M440 2860 c-9 -6 -10 -10 -3 -10 6 0 15 5 18 10 8 12 4 12 -15 0z"/>
<path d="M593 2853 c0 -9 4 -10 14 -2 7 6 13 12 13 14 0 1 -6 2 -13 2 -8 0
-14 -6 -14 -14z"/>
<path d="M295 2840 c5 -9 1 -11 -16 -6 -13 3 -18 3 -11 0 6 -3 10 -9 8 -13 -3
-4 1 -8 9 -8 18 0 28 24 13 33 -7 5 -8 2 -3 -6z"/>
<path d="M346 2842 c-3 -5 1 -9 9 -9 8 0 12 4 9 9 -3 4 -7 8 -9 8 -2 0 -6 -4
-9 -8z"/>
<path d="M256 2782 c-3 -5 1 -9 9 -9 8 0 12 4 9 9 -3 4 -7 8 -9 8 -2 0 -6 -4
-9 -8z"/>
<path d="M310 2778 c0 -4 4 -8 9 -8 6 0 12 4 15 8 3 5 -1 9 -9 9 -8 0 -15 -4
-15 -9z"/>
<path d="M370 2779 c0 -5 5 -7 10 -4 6 3 10 8 10 11 0 2 -4 4 -10 4 -5 0 -10
-5 -10 -11z"/>
<path d="M385 2760 c-3 -6 1 -7 9 -4 18 7 21 14 7 14 -6 0 -13 -4 -16 -10z"/>
<path d="M331 2744 c0 -11 3 -14 6 -6 3 7 2 16 -1 19 -3 4 -6 -2 -5 -13z"/>
<path d="M273 2735 c0 -6 8 -11 18 -11 9 0 15 5 12 11 -2 7 -10 12 -17 12 -7
0 -13 -5 -13 -12z"/>
<path d="M350 2746 c0 -2 7 -7 16 -10 8 -3 12 -2 9 4 -6 10 -25 14 -25 6z"/>
<path d="M394 2738 c-4 -7 -4 -10 1 -6 4 4 15 2 24 -5 14 -11 14 -10 2 6 -16
20 -18 21 -27 5z"/>
<path d="M599 2733 c-13 -16 -12 -17 4 -4 9 7 17 15 17 17 0 8 -8 3 -21 -13z"/>
<path d="M494 2705 c1 -13 6 -28 10 -32 5 -4 6 -3 3 4 -4 6 -1 14 5 16 10 4
10 6 0 6 -7 1 -11 5 -7 10 3 5 1 12 -3 15 -5 3 -8 -6 -8 -19z"/>
<path d="M296 2693 c-6 -14 -5 -15 5 -6 7 7 10 15 7 18 -3 3 -9 -2 -12 -12z"/>
<path d="M437 2696 c-4 -10 -1 -13 8 -9 8 3 12 9 9 14 -7 12 -11 11 -17 -5z"/>
<path d="M539 2693 c-13 -17 -13 -17 6 -3 11 8 22 16 24 17 2 2 0 3 -6 3 -6 0
-17 -8 -24 -17z"/>
<path d="M353 2685 c0 -8 4 -15 9 -15 4 0 8 4 8 9 0 6 -4 12 -8 15 -5 3 -9 -1
-9 -9z"/>
<path d="M3450 2679 c0 -5 5 -7 10 -4 6 3 10 8 10 11 0 2 -4 4 -10 4 -5 0 -10
-5 -10 -11z"/>
<path d="M3536 2678 c3 -5 10 -6 15 -3 13 9 11 12 -6 12 -8 0 -12 -4 -9 -9z"/>
<path d="M330 2660 c0 -5 5 -10 11 -10 5 0 7 5 4 10 -3 6 -8 10 -11 10 -2 0
-4 -4 -4 -10z"/>
<path d="M470 2660 c0 -5 5 -10 10 -10 6 0 10 5 10 10 0 6 -4 10 -10 10 -5 0
-10 -4 -10 -10z"/>
<path d="M375 2649 c-4 -6 -5 -12 -2 -15 2 -3 7 2 10 11 7 17 1 20 -8 4z"/>
<path d="M3615 2589 c-4 -6 -5 -12 -2 -15 2 -3 7 2 10 11 7 17 1 20 -8 4z"/>
<path d="M3635 2511 c-3 -5 -2 -12 3 -15 5 -3 9 1 9 9 0 17 -3 19 -12 6z"/>
<path d="M3636 2467 c3 -10 9 -15 12 -12 3 3 0 11 -7 18 -10 9 -11 8 -5 -6z"/>
<path d="M3540 2440 c-12 -7 -10 -9 7 -7 12 0 19 5 17 9 -6 10 -6 10 -24 -2z"/>
<path d="M3410 2340 c0 -5 5 -10 11 -10 5 0 7 5 4 10 -3 6 -8 10 -11 10 -2 0
-4 -4 -4 -10z"/>
</g>
</svg>
