<?xml version="1.0" standalone="no"?>
<!DOCTYPE svg PUBLIC "-//W3C//DTD SVG 20010904//EN"
 "http://www.w3.org/TR/2001/REC-SVG-20010904/DTD/svg10.dtd">
<svg version="1.0" xmlns="http://www.w3.org/2000/svg"
 width="451.000000pt" height="451.000000pt" viewBox="0 0 451.000000 451.000000"
 preserveAspectRatio="xMidYMid meet">
<metadata>
Created by potrace 1.11, written by Peter Selinger 2001-2013
</metadata>
<g transform="translate(0.000000,451.000000) scale(0.100000,-0.100000)"
fill="#000000" stroke="none">
<path d="M1546 4148 c3 -5 10 -6 15 -3 13 9 11 12 -6 12 -8 0 -12 -4 -9 -9z"/>
<path d="M1555 4119 c-4 -6 -5 -12 -2 -15 2 -3 7 2 10 11 7 17 1 20 -8 4z"/>
<path d="M1435 4110 c-3 -5 -1 -10 4 -10 6 0 11 5 11 10 0 6 -2 10 -4 10 -3 0
-8 -4 -11 -10z"/>
<path d="M1575 4090 c-3 -5 -1 -10 4 -10 6 0 11 5 11 10 0 6 -2 10 -4 10 -3 0
-8 -4 -11 -10z"/>
<path d="M2695 4010 c3 -5 8 -10 11 -10 2 0 4 5 4 10 0 6 -5 10 -11 10 -5 0
-7 -4 -4 -10z"/>
<path d="M1630 3990 c0 -5 5 -10 11 -10 5 0 7 5 4 10 -3 6 -8 10 -11 10 -2 0
-4 -4 -4 -10z"/>
<path d="M2635 3950 c3 -5 8 -10 11 -10 2 0 4 5 4 10 0 6 -5 10 -11 10 -5 0
-7 -4 -4 -10z"/>
<path d="M1690 3889 c0 -5 5 -7 10 -4 6 3 10 8 10 11 0 2 -4 4 -10 4 -5 0 -10
-5 -10 -11z"/>
<path d="M1730 3889 c0 -5 5 -7 10 -4 6 3 10 8 10 11 0 2 -4 4 -10 4 -5 0 -10
-5 -10 -11z"/>
<path d="M2496 3872 c-2 -4 -1 -14 4 -22 7 -11 9 -9 7 8 -1 24 -3 26 -11 14z"/>
<path d="M1370 3710 c0 -5 5 -10 11 -10 5 0 7 5 4 10 -3 6 -8 10 -11 10 -2 0
-4 -4 -4 -10z"/>
<path d="M1562 3683 c-23 -25 -26 -42 -16 -79 4 -16 23 -28 65 -44 62 -22 65
-26 60 -95 l-2 -30 29 40 c28 38 49 88 47 110 -6 61 -50 101 -126 115 -30 6
-39 3 -57 -17z"/>
<path d="M1245 3670 c-3 -6 1 -7 9 -4 18 7 21 14 7 14 -6 0 -13 -4 -16 -10z"/>
<path d="M1347 3669 c7 -7 15 -10 18 -7 3 3 -2 9 -12 12 -14 6 -15 5 -6 -5z"/>
<path d="M1394 3652 c4 -3 14 -7 22 -8 9 -1 13 0 10 4 -4 3 -14 7 -22 8 -9 1
-13 0 -10 -4z"/>
<path d="M1456 3652 c-3 -5 1 -9 9 -9 8 0 12 4 9 9 -3 4 -7 8 -9 8 -2 0 -6 -4
-9 -8z"/>
<path d="M2895 3651 c-3 -5 -2 -12 3 -15 5 -3 9 1 9 9 0 17 -3 19 -12 6z"/>
<path d="M2670 3630 c0 -5 5 -10 10 -10 6 0 10 5 10 10 0 6 -4 10 -10 10 -5 0
-10 -4 -10 -10z"/>
<path d="M895 3623 c-92 -17 -128 -86 -89 -168 14 -29 72 -85 88 -85 12 0 45
-34 40 -42 -3 -4 -1 -8 3 -8 5 0 10 -16 11 -35 2 -19 -2 -35 -7 -35 -6 0 -7
-8 -4 -17 5 -12 2 -15 -9 -10 -12 4 -14 1 -11 -14 3 -11 -1 -21 -10 -25 -15
-5 -17 -27 -4 -40 4 -4 7 1 7 11 0 10 3 15 6 12 4 -3 18 3 32 13 31 25 39 25
47 -1 4 -11 9 -18 12 -16 2 3 -1 15 -7 27 -10 18 -9 22 8 27 11 2 25 16 32 29
8 13 17 24 22 24 4 0 8 7 8 15 0 8 4 15 9 15 17 0 33 71 29 125 -3 37 -14 66
-36 100 -18 27 -32 44 -32 39 0 -5 -4 -4 -8 1 -20 29 -103 64 -137 58z"/>
<path d="M1299 3543 c-13 -16 -12 -17 4 -4 16 13 21 21 13 21 -2 0 -10 -8 -17
-17z"/>
<path d="M1250 3536 c0 -2 7 -7 16 -10 8 -3 12 -2 9 4 -6 10 -25 14 -25 6z"/>
<path d="M2995 3453 c3 -3 -2 -14 -11 -24 -10 -11 -12 -19 -4 -24 6 -4 9 -1 8
7 -2 7 2 12 9 11 12 -2 12 23 0 32 -4 3 -5 2 -2 -2z"/>
<path d="M1300 3430 c-9 -6 -10 -10 -3 -10 6 0 15 5 18 10 8 12 4 12 -15 0z"/>
<path d="M1135 3410 c-3 -5 -1 -10 4 -10 6 0 11 5 11 10 0 6 -2 10 -4 10 -3 0
-8 -4 -11 -10z"/>
<path d="M1260 3410 c-9 -6 -10 -10 -3 -10 6 0 15 5 18 10 8 12 4 12 -15 0z"/>
<path d="M2941 3398 c-1 -20 14 -24 25 -6 4 6 3 8 -4 4 -5 -3 -13 0 -15 6 -3
8 -6 6 -6 -4z"/>
<path d="M1175 3390 c3 -5 8 -10 11 -10 2 0 4 5 4 10 0 6 -5 10 -11 10 -5 0
-7 -4 -4 -10z"/>
<path d="M1156 3363 c-6 -14 -5 -15 5 -6 7 7 10 15 7 18 -3 3 -9 -2 -12 -12z"/>
<path d="M1230 3375 c0 -7 30 -13 34 -7 3 4 -4 9 -15 9 -10 1 -19 0 -19 -2z"/>
<path d="M2143 3369 c-12 -4 -39 -8 -61 -7 -21 0 -51 -7 -66 -17 -21 -14 -29
-15 -41 -5 -12 10 -22 8 -52 -7 -29 -15 -52 -19 -96 -16 -51 3 -60 1 -83 -22
-14 -15 -32 -24 -40 -21 -7 3 -20 -4 -28 -15 -12 -17 -19 -19 -47 -11 -22 6
-42 5 -57 -1 -23 -11 -30 -27 -10 -27 14 0 3 -13 -15 -17 -78 -18 -82 -19 -81
-42 0 -16 -10 -27 -37 -41 -21 -11 -40 -24 -44 -30 -3 -5 -14 -10 -24 -10 -10
0 -25 -10 -33 -21 -8 -12 -27 -23 -42 -25 -30 -3 -58 -31 -51 -51 3 -8 -8 -12
-33 -10 -31 2 -36 -1 -34 -16 2 -11 -4 -28 -14 -38 -9 -10 -13 -19 -8 -19 12
0 -117 -125 -138 -132 -21 -9 -31 2 -17 19 9 9 8 13 0 13 -6 0 -12 -6 -12 -12
-1 -7 -2 -17 -4 -23 -1 -5 -3 -16 -3 -23 -1 -7 -7 -10 -13 -6 -8 4 -7 0 1 -15
9 -18 6 -33 -24 -94 -19 -40 -49 -97 -67 -127 -35 -61 -55 -111 -63 -162 -3
-18 -8 -46 -12 -63 -12 -60 -11 -140 3 -167 7 -15 25 -38 40 -52 26 -24 26
-25 9 -51 -17 -26 -61 -49 -75 -41 -11 7 -83 -15 -101 -30 -8 -7 -27 -17 -43
-23 -15 -6 -36 -25 -46 -42 l-19 -32 26 -23 c45 -39 82 -79 82 -86 0 -5 14
-20 31 -35 54 -48 65 -95 36 -156 -15 -31 -22 -37 -44 -35 l-26 3 -1 -121 -2
-122 -46 -43 c-49 -48 -88 -105 -88 -130 0 -9 8 -23 19 -33 11 -10 16 -25 14
-40 -3 -14 8 -46 26 -81 36 -67 36 -70 14 -110 -9 -16 -19 -57 -22 -90 -6 -60
-6 -60 -38 -59 -39 2 -48 -17 -24 -48 17 -20 22 -21 56 -10 43 13 55 9 55 -18
0 -19 14 -33 39 -37 8 -1 17 -8 22 -15 66 -116 91 -144 157 -177 37 -19 76
-37 87 -41 51 -20 111 -40 118 -40 4 0 20 -6 35 -14 34 -18 120 -28 128 -15 3
5 9 7 13 5 4 -3 18 -7 32 -10 13 -2 78 -16 144 -29 66 -14 140 -28 165 -32 25
-3 52 -8 60 -10 120 -32 547 -47 890 -31 91 5 248 10 350 12 165 4 255 9 255
14 0 0 20 3 45 5 51 5 105 13 105 15 0 1 11 3 25 5 29 3 88 14 110 20 8 2 32
6 52 9 21 3 70 21 110 40 40 19 91 42 113 51 39 17 85 59 85 77 0 13 48 74 98
125 32 33 48 42 66 39 24 -4 66 -24 66 -30 0 -2 -14 -31 -30 -65 -17 -33 -33
-74 -36 -90 l-6 -30 43 5 c79 8 135 25 161 47 23 21 25 27 23 109 -1 48 -4 91
-8 94 -4 4 1 20 11 36 l17 29 -40 35 c-22 18 -43 34 -46 34 -15 0 -18 33 -5
53 12 19 12 29 -3 72 -9 28 -22 60 -29 72 -7 13 -12 38 -11 55 1 18 -6 53 -14
78 -14 38 -15 47 -3 55 27 21 30 80 6 123 -21 37 -64 72 -90 72 -6 0 -27 12
-46 28 -24 19 -34 35 -34 55 0 16 4 26 9 23 5 -3 14 1 21 9 6 8 27 19 45 25
50 17 86 63 81 106 -4 33 -44 116 -58 122 -5 2 -8 10 -8 17 0 7 -6 15 -12 18
-10 3 -10 7 1 20 19 23 11 141 -11 163 -12 13 -14 23 -7 40 4 13 5 24 1 24 -4
0 0 5 8 10 11 7 11 10 2 10 -8 0 -10 5 -5 13 4 6 6 20 4 31 -2 13 1 16 11 10
10 -6 11 -5 1 7 -6 8 -10 35 -9 62 1 26 -1 47 -4 47 -3 0 -6 9 -7 19 -1 11 -9
49 -18 86 -9 36 -18 71 -19 78 -2 7 -8 25 -15 41 -6 16 -10 35 -7 43 3 7 2 13
-3 13 -9 0 -56 100 -53 113 1 4 -2 7 -8 7 -5 0 -10 7 -10 15 0 8 -4 15 -10 15
-5 0 -10 5 -10 11 0 6 -9 24 -21 40 -11 16 -19 29 -17 29 2 0 -37 43 -87 95
-49 52 -95 95 -101 95 -7 0 -15 8 -18 18 -19 52 -56 90 -75 77 -5 -3 -13 0
-17 6 -3 6 -1 14 5 18 12 8 -40 61 -59 61 -5 0 -10 5 -10 10 0 6 -8 10 -18 10
-9 0 -25 11 -35 24 -12 16 -25 22 -39 18 -11 -2 -23 -1 -27 4 -13 19 -54 49
-46 34 7 -12 5 -12 -11 1 -10 9 -30 19 -44 22 -14 4 -35 15 -48 27 -12 11 -23
20 -24 19 -8 -6 -88 13 -88 20 0 5 -13 14 -30 21 -16 7 -30 17 -30 22 0 6 -9
8 -19 5 -18 -4 -57 24 -47 34 2 2 -16 5 -40 5 -25 1 -57 7 -73 13 -15 7 -61
13 -102 15 -41 2 -82 6 -92 11 -9 4 -26 5 -37 2 -11 -3 -23 -1 -26 5 -4 5 -20
7 -37 4 -16 -3 -36 -1 -43 5 -9 7 -28 9 -51 4 -53 -10 -154 -12 -178 -4 -11 3
-30 3 -42 -2z"/>
<path d="M3815 3371 c-3 -5 -2 -12 3 -15 5 -3 9 1 9 9 0 17 -3 19 -12 6z"/>
<path d="M1180 3361 c0 -6 4 -13 10 -16 6 -3 7 1 4 9 -7 18 -14 21 -14 7z"/>
<path d="M2938 3358 c5 -5 16 -8 23 -6 8 3 3 7 -10 11 -17 4 -21 3 -13 -5z"/>
<path d="M1219 3343 c-13 -16 -12 -17 4 -4 9 7 17 15 17 17 0 8 -8 3 -21 -13z"/>
<path d="M2991 3343 c7 -12 15 -20 18 -17 3 2 -3 12 -13 22 -17 16 -18 16 -5
-5z"/>
<path d="M3136 3352 c-3 -5 1 -9 9 -9 8 0 12 4 9 9 -3 4 -7 8 -9 8 -2 0 -6 -4
-9 -8z"/>
<path d="M1150 3325 c5 -7 7 -14 4 -18 -3 -3 2 -4 12 -3 10 2 20 9 22 17 3 11
1 11 -7 -1 -9 -13 -15 -8 -13 11 1 3 -6 6 -13 6 -10 0 -12 -4 -5 -12z"/>
<path d="M1240 3330 c-9 -6 -10 -10 -3 -10 6 0 15 5 18 10 8 12 4 12 -15 0z"/>
<path d="M2964 3326 c-3 -9 -13 -12 -22 -9 -9 4 -15 4 -12 2 29 -25 53 -41 43
-30 -8 10 -9 20 -2 33 5 10 7 18 4 18 -3 0 -8 -6 -11 -14z"/>
<path d="M3108 3329 c6 -9 9 -18 6 -22 -3 -3 2 -4 13 -3 10 2 25 -2 33 -8 13
-10 13 -9 1 7 -8 9 -16 15 -19 12 -3 -3 -15 3 -26 12 -15 14 -18 14 -8 2z"/>
<path d="M3209 3313 c-13 -16 -12 -17 4 -4 16 13 21 21 13 21 -2 0 -10 -8 -17
-17z"/>
<path d="M3033 3297 c-1 -11 -1 -18 0 -16 2 2 8 11 15 20 9 12 9 16 -1 16 -7
0 -14 -9 -14 -20z"/>
<path d="M1113 3297 c0 -8 6 -14 14 -14 9 0 10 4 2 14 -6 7 -12 13 -14 13 -1
0 -2 -6 -2 -13z"/>
<path d="M1259 3298 c-6 -21 -5 -38 1 -38 5 0 8 9 7 20 -1 17 -5 26 -8 18z"/>
<path d="M3070 3291 c0 -6 4 -13 10 -16 6 -3 7 1 4 9 -7 18 -14 21 -14 7z"/>
<path d="M3210 3290 c-9 -6 -10 -10 -3 -10 6 0 15 5 18 10 8 12 4 12 -15 0z"/>
<path d="M853 3275 c0 -8 4 -12 9 -9 5 3 6 10 3 15 -9 13 -12 11 -12 -6z"/>
<path d="M886 3271 c-12 -13 -14 -21 -6 -26 6 -4 14 -4 17 -1 4 3 0 6 -7 6 -9
0 -8 6 5 20 10 11 16 20 13 20 -3 0 -13 -9 -22 -19z"/>
<path d="M1163 3271 c-10 -15 -9 -20 2 -25 8 -3 17 0 21 6 5 7 2 8 -6 3 -9 -5
-10 -2 -5 14 8 26 4 27 -12 2z"/>
<path d="M3052 3270 c0 -14 2 -19 5 -12 2 6 2 18 0 25 -3 6 -5 1 -5 -13z"/>
<path d="M3108 3283 c7 -3 16 -2 19 1 4 3 -2 6 -13 5 -11 0 -14 -3 -6 -6z"/>
<path d="M1080 3268 c0 -9 -6 -19 -12 -21 -10 -4 -10 -6 0 -6 14 -1 28 26 18
36 -3 4 -6 -1 -6 -9z"/>
<path d="M1204 3269 c-3 -6 -2 -15 4 -21 6 -6 12 -6 17 3 6 8 4 10 -5 4 -10
-6 -12 -4 -7 8 7 19 2 23 -9 6z"/>
<path d="M3118 3263 c6 -2 10 -8 8 -12 -3 -4 0 -13 6 -21 8 -12 9 -12 4 3 -3
10 0 17 7 17 8 0 6 4 -3 10 -8 5 -19 9 -25 9 -5 0 -4 -3 3 -6z"/>
<path d="M730 3249 c0 -5 5 -7 10 -4 6 3 10 8 10 11 0 2 -4 4 -10 4 -5 0 -10
-5 -10 -11z"/>
<path d="M3070 3250 c0 -5 8 -6 18 -3 15 6 16 5 2 -13 -14 -18 -14 -18 2 -5
10 7 15 17 12 22 -7 12 -34 11 -34 -1z"/>
<path d="M3193 3245 c0 -8 4 -12 9 -9 5 3 6 10 3 15 -9 13 -12 11 -12 -6z"/>
<path d="M830 3247 c0 -2 6 -10 14 -16 11 -9 16 -9 22 1 4 7 4 10 -1 6 -4 -4
-14 -3 -22 3 -7 6 -13 9 -13 6z"/>
<path d="M1090 3230 c0 -5 5 -10 10 -10 6 0 10 5 10 10 0 6 -4 10 -10 10 -5 0
-10 -4 -10 -10z"/>
<path d="M3233 3233 c4 -3 1 -13 -6 -22 -11 -14 -10 -14 5 -2 16 12 16 31 1
31 -4 0 -3 -3 0 -7z"/>
<path d="M695 3211 c-3 -5 -2 -12 3 -15 5 -3 9 1 9 9 0 17 -3 19 -12 6z"/>
<path d="M876 3207 c3 -10 9 -15 12 -12 3 3 0 11 -7 18 -10 9 -11 8 -5 -6z"/>
<path d="M1048 3213 c6 -2 9 -10 6 -15 -4 -7 -2 -8 5 -4 13 9 5 26 -12 25 -9
0 -8 -2 1 -6z"/>
<path d="M1250 3210 c0 -5 5 -10 11 -10 5 0 7 5 4 10 -3 6 -8 10 -11 10 -2 0
-4 -4 -4 -10z"/>
<path d="M1076 3195 c-3 -8 -1 -15 4 -15 6 0 10 7 10 15 0 8 -2 15 -4 15 -2 0
-6 -7 -10 -15z"/>
<path d="M1135 3201 c-3 -5 -2 -12 3 -15 5 -3 9 1 9 9 0 17 -3 19 -12 6z"/>
<path d="M3108 3203 c7 -3 16 -2 19 1 4 3 -2 6 -13 5 -11 0 -14 -3 -6 -6z"/>
<path d="M3251 3197 c-8 -10 -7 -14 2 -14 8 0 14 6 14 14 0 7 -1 13 -2 13 -2
0 -8 -6 -14 -13z"/>
<path d="M746 3192 c-3 -5 1 -9 9 -9 8 0 12 4 9 9 -3 4 -7 8 -9 8 -2 0 -6 -4
-9 -8z"/>
<path d="M3184 3193 c4 -4 16 -8 28 -10 12 -2 19 -1 16 2 -3 3 -16 8 -28 10
-12 2 -20 1 -16 -2z"/>
<path d="M3316 3192 c-3 -5 1 -9 9 -9 8 0 12 4 9 9 -3 4 -7 8 -9 8 -2 0 -6 -4
-9 -8z"/>
<path d="M980 3162 c6 -12 8 -27 5 -32 -6 -10 34 -5 44 6 3 4 -2 4 -11 1 -10
-4 -18 -3 -18 1 0 5 -7 17 -16 28 -14 18 -15 18 -4 -4z"/>
<path d="M1050 3170 c0 -5 5 -10 11 -10 5 0 7 5 4 10 -3 6 -8 10 -11 10 -2 0
-4 -4 -4 -10z"/>
<path d="M873 3142 c2 -12 6 -24 10 -28 3 -4 4 4 2 16 -6 30 -16 40 -12 12z"/>
<path d="M3286 3151 c-3 -5 1 -11 9 -14 9 -4 12 -1 8 9 -6 16 -10 17 -17 5z"/>
<path d="M3994 3142 c-32 -10 -84 -59 -91 -84 -14 -58 -14 -94 -2 -151 l13
-62 13 45 c20 69 31 75 134 75 83 0 92 2 110 24 23 29 25 79 3 110 -30 42
-116 63 -180 43z"/>
<path d="M1156 3128 c3 -4 11 -5 19 -1 21 7 19 12 -4 10 -11 0 -18 -5 -15 -9z"/>
<path d="M1227 3129 c7 -7 15 -10 18 -7 3 3 -2 9 -12 12 -14 6 -15 5 -6 -5z"/>
<path d="M3315 3121 c-3 -5 -2 -12 3 -15 5 -3 9 1 9 9 0 17 -3 19 -12 6z"/>
<path d="M833 3104 c0 -7 6 -10 14 -7 7 3 13 8 13 12 0 4 -6 8 -13 8 -8 0 -14
-6 -14 -13z"/>
<path d="M800 3090 c-8 -5 -12 -12 -9 -15 4 -3 12 1 19 10 14 17 11 19 -10 5z"/>
<path d="M907 3089 c7 -7 15 -10 18 -7 3 3 -2 9 -12 12 -14 6 -15 5 -6 -5z"/>
<path d="M975 3090 c-3 -5 -1 -10 4 -10 6 0 11 5 11 10 0 6 -2 10 -4 10 -3 0
-8 -4 -11 -10z"/>
<path d="M1150 3086 c7 -7 13 -7 20 0 6 6 3 10 -10 10 -13 0 -16 -4 -10 -10z"/>
<path d="M765 3070 c-3 -5 -1 -10 5 -10 6 0 8 -5 4 -12 -4 -7 -3 -8 4 -4 6 4
9 13 5 21 -6 18 -10 19 -18 5z"/>
<path d="M865 3070 c-3 -6 1 -7 9 -4 18 7 21 14 7 14 -6 0 -13 -4 -16 -10z"/>
<path d="M1115 3070 c-3 -5 -1 -10 4 -10 6 0 11 5 11 10 0 6 -2 10 -4 10 -3 0
-8 -4 -11 -10z"/>
<path d="M786 3028 l-18 -33 21 25 c18 22 26 40 18 40 -1 0 -11 -15 -21 -32z"/>
<path d="M858 3028 c-9 -5 -6 -7 9 -5 12 2 25 6 28 8 8 9 -23 6 -37 -3z"/>
<path d="M975 3030 c-3 -5 -1 -10 4 -10 6 0 11 5 11 10 0 6 -2 10 -4 10 -3 0
-8 -4 -11 -10z"/>
<path d="M1110 3028 c0 -4 4 -8 9 -8 6 0 12 4 15 8 3 5 -1 9 -9 9 -8 0 -15 -4
-15 -9z"/>
<path d="M815 3020 c-3 -6 1 -7 9 -4 18 7 21 14 7 14 -6 0 -13 -4 -16 -10z"/>
<path d="M730 3013 c0 -7 5 -15 10 -18 6 -3 10 -11 10 -16 0 -6 -5 -7 -12 -3
-7 5 -8 3 -3 -5 5 -9 11 -9 17 -3 7 7 5 18 -6 33 -9 13 -16 18 -16 12z"/>
<path d="M790 2992 c0 -5 7 -9 15 -9 8 0 12 4 9 9 -3 4 -9 8 -15 8 -5 0 -9 -4
-9 -8z"/>
<path d="M1105 2990 c-3 -6 1 -7 9 -4 18 7 21 14 7 14 -6 0 -13 -4 -16 -10z"/>
<path d="M811 2963 c-1 -18 13 -23 29 -11 12 8 12 9 -2 5 -9 -3 -19 -1 -22 6
-3 9 -5 9 -5 0z"/>
<path d="M1036 2948 c3 -5 10 -6 15 -3 13 9 11 12 -6 12 -8 0 -12 -4 -9 -9z"/>
<path d="M790 2930 c0 -5 5 -10 10 -10 6 0 10 5 10 10 0 6 -4 10 -10 10 -5 0
-10 -4 -10 -10z"/>
<path d="M845 2929 c-4 -6 -5 -12 -2 -15 2 -3 7 2 10 11 7 17 1 20 -8 4z"/>
<path d="M760 2906 c0 -20 17 -29 26 -15 5 8 3 9 -6 4 -10 -6 -12 -4 -7 8 3
10 2 17 -3 17 -6 0 -10 -6 -10 -14z"/>
<path d="M735 2901 c-3 -5 -2 -12 3 -15 5 -3 9 1 9 9 0 17 -3 19 -12 6z"/>
<path d="M833 2878 c-2 -18 0 -20 7 -8 12 18 13 30 2 30 -4 0 -9 -10 -9 -22z"/>
<path d="M1107 2889 c7 -7 15 -10 18 -7 3 3 -2 9 -12 12 -14 6 -15 5 -6 -5z"/>
<path d="M789 2873 c-13 -16 -12 -17 4 -4 9 7 17 15 17 17 0 8 -8 3 -21 -13z"/>
<path d="M870 2880 c-11 -7 -11 -10 -2 -10 8 0 10 -5 6 -12 -4 -7 -3 -9 1 -5
7 6 17 37 12 37 -1 0 -9 -5 -17 -10z"/>
<path d="M912 2861 c-11 -7 -10 -9 3 -14 9 -4 14 -3 10 2 -3 5 1 12 7 14 7 3
9 6 3 6 -5 0 -16 -3 -23 -8z"/>
<path d="M1069 2853 c-13 -16 -12 -17 4 -4 9 7 17 15 17 17 0 8 -8 3 -21 -13z"/>
<path d="M4115 2861 c-3 -5 -2 -12 3 -15 5 -3 9 1 9 9 0 17 -3 19 -12 6z"/>
<path d="M1010 2851 c0 -6 4 -13 10 -16 6 -3 7 1 4 9 -7 18 -14 21 -14 7z"/>
<path d="M920 2823 l-25 -25 28 17 c15 10 27 21 27 26 0 12 -2 11 -30 -18z"/>
<path d="M976 2835 c3 -7 12 -16 19 -19 9 -3 12 0 9 9 -3 7 -12 16 -19 19 -9
3 -12 0 -9 -9z"/>
<path d="M770 2836 c0 -3 9 -10 20 -16 11 -6 20 -8 20 -6 0 3 -9 10 -20 16
-11 6 -20 8 -20 6z"/>
<path d="M846 2828 c3 -4 9 -8 15 -8 5 0 9 4 9 8 0 5 -7 9 -15 9 -8 0 -12 -4
-9 -9z"/>
<path d="M890 2829 c0 -5 5 -7 10 -4 6 3 10 8 10 11 0 2 -4 4 -10 4 -5 0 -10
-5 -10 -11z"/>
<path d="M950 2810 c0 -5 5 -10 10 -10 6 0 10 5 10 10 0 6 -4 10 -10 10 -5 0
-10 -4 -10 -10z"/>
<path d="M830 2790 c0 -5 5 -10 11 -10 5 0 7 5 4 10 -3 6 -8 10 -11 10 -2 0
-4 -4 -4 -10z"/>
<path d="M875 2790 c-3 -5 -1 -10 4 -10 6 0 11 5 11 10 0 6 -2 10 -4 10 -3 0
-8 -4 -11 -10z"/>
<path d="M4186 2792 c-3 -5 1 -9 9 -9 8 0 12 4 9 9 -3 4 -7 8 -9 8 -2 0 -6 -4
-9 -8z"/>
<path d="M915 2770 c3 -5 8 -10 11 -10 2 0 4 5 4 10 0 6 -5 10 -11 10 -5 0 -7
-4 -4 -10z"/>
<path d="M3906 2748 c3 -4 9 -8 15 -8 5 0 9 4 9 8 0 5 -7 9 -15 9 -8 0 -12 -4
-9 -9z"/>
<path d="M4190 2730 c0 -4 7 -7 15 -6 23 3 26 12 5 13 -11 1 -20 -2 -20 -7z"/>
<path d="M131 2673 c-171 -83 -172 -368 -1 -367 73 1 121 55 142 158 16 81 48
116 108 118 25 1 63 -2 85 -6 l40 -7 -64 45 c-124 88 -215 105 -310 59z"/>
<path d="M4311 1622 c-37 -6 -95 -46 -130 -90 -38 -49 -39 -54 -3 -36 66 32
108 22 137 -33 55 -102 173 -113 191 -18 18 95 -93 196 -195 177z"/>
<path d="M291 1488 c-63 -43 -73 -140 -19 -181 31 -23 72 -17 88 13 6 11 12
43 14 72 5 58 22 78 70 79 l31 1 -33 14 c-63 27 -113 28 -151 2z"/>
</g>
</svg>
